# xmcd
#
# Track frame offsets:
#	150
#	15262
#	32849
#	47136
#	64873
#	80210
#	94872
#	111784
#	129746
#	145158
#	161245
#	180257
#	198519
#	211081
#	224468
#	239731
#	259118
#	274380
#	288967
#	308204
#
# Disc length: 4306 seconds
#
# Revision: 2
# Processed by: cddbd v1.5.2PL0 Copyright (c) Steve Scherf et al.
# Submitted via: audiograbber 1.83.01
#
DISCID=3110d014
DTITLE=Various Artist - Promo Only Country Radio - April 2007
DYEAR=2007
DGENRE=Country
TTITLE0=Toby Keith - High Maintenance Woman
TTITLE1=Lonestar - Nothing To Prove
TTITLE2=Jason Aldean - Johnny Cash
TTITLE3=Kellie Pickler - I Wonder
TTITLE4=Jerrod Niemann - I Love Women (My Momma Cant Stand)
TTITLE5=Montgomery Gentry - Lucky Man
TTITLE6=Luke Bryan - All My Friends Say
TTITLE7=Little Big Town - A Little More You
TTITLE8=Sarah Buxton - My Kind Of Day
TTITLE9=Big and Rich - Lost In This Moment
TTITLE10=Randy Rogers Band - One More Goodbye
TTITLE11=Mary Chapin Carpenter - It Must Have Happened
TTITLE12=Lucy Angel - How Long?
TTITLE13=Cadillac Sky - Wish I Could Say I Was Drinking
TTITLE14=Jim Van Fleet and The Reign - No Way
TTITLE15=Lisa Dames - Just Another Day
TTITLE16=David Williams - One More Day
TTITLE17=Elana James - Twenty Four Hours A Day
TTITLE18=Mikel Knight - Texas Bad Boi
TTITLE19=Ted Russell Kamp - Better Before You Were Big Time
EXTD=
EXTT0=
EXTT1=
EXTT2=
EXTT3=
EXTT4=
EXTT5=
EXTT6=
EXTT7=
EXTT8=
EXTT9=
EXTT10=
EXTT11=
EXTT12=
EXTT13=
EXTT14=
EXTT15=
EXTT16=
EXTT17=
EXTT18=
EXTT19=
PLAYORDER=
